<svg width="9" height="10" viewBox="0 0 9 10" fill="none" xmlns="http://www.w3.org/2000/svg">
<g clip-path="url(#clip0_333_127)">
<path d="M6.84218 6.49578C6.54811 6.20727 6.18099 6.20727 5.88879 6.49578C5.6659 6.71543 5.44301 6.93507 5.22386 7.15843C5.16392 7.21986 5.11335 7.23289 5.0403 7.19194C4.89608 7.11376 4.74249 7.05047 4.60388 6.96485C3.95768 6.56093 3.41637 6.04161 2.93687 5.45714C2.69899 5.16676 2.48734 4.85591 2.33937 4.50597C2.3094 4.43524 2.31502 4.3887 2.37308 4.331C2.59597 4.11694 2.81325 3.8973 3.03239 3.67766C3.3377 3.37239 3.3377 3.01501 3.03052 2.70788C2.85633 2.53291 2.68213 2.36166 2.50794 2.18669C2.32813 2.008 2.15019 1.82745 1.9685 1.65062C1.67443 1.36583 1.30732 1.36583 1.01512 1.65248C0.790354 1.87212 0.574954 2.09735 0.346442 2.31327C0.134787 2.51243 0.0280232 2.75628 0.00554657 3.04107C-0.0300414 3.50455 0.0842147 3.94197 0.245297 4.36823C0.574954 5.25052 1.07693 6.03416 1.68567 6.75265C2.50794 7.72429 3.48942 8.49304 4.6376 9.04773C5.15456 9.29716 5.69025 9.48888 6.27277 9.52052C6.6736 9.54286 7.02199 9.44235 7.30107 9.1315C7.49213 8.9193 7.70753 8.72571 7.90981 8.52282C8.2095 8.22128 8.21138 7.85645 7.91356 7.55863C7.55768 7.20311 7.19993 6.84945 6.84218 6.49578Z" fill="white"/>
<path d="M6.48449 5.01211L7.17564 4.89485C7.06701 4.26384 6.76732 3.6924 6.31217 3.23822C5.83079 2.75985 5.22205 2.4583 4.5515 2.36523L4.4541 3.05581C4.97294 3.1284 5.44494 3.36107 5.81768 3.73149C6.16981 4.08142 6.4002 4.52443 6.48449 5.01211Z" fill="white"/>
<path d="M7.56525 2.02652C6.76733 1.23357 5.75776 0.732864 4.6433 0.578369L4.5459 1.26894C5.50865 1.40296 6.38149 1.83666 7.07077 2.51979C7.72446 3.16941 8.15339 3.99027 8.30885 4.89304L9.00001 4.77578C8.81832 3.72968 8.32197 2.78038 7.56525 2.02652Z" fill="white"/>
</g>
<defs>
<clipPath id="clip0_333_127">
<rect width="9" height="8.94578" fill="white" transform="translate(0 0.578369)"/>
</clipPath>
</defs>
</svg>
